<?xml version="1.0" encoding="UTF-8"?>
<svg xmlns="http://www.w3.org/2000/svg" width="32" height="32" viewBox="0 0 32 32">
  <defs>
    <linearGradient id="gold" x1="0" y1="0" x2="1" y2="1">
      <stop offset="0%" stop-color="#FFF2B0"/>
      <stop offset="35%" stop-color="#E8C35A"/>
      <stop offset="70%" stop-color="#B8872D"/>
      <stop offset="100%" stop-color="#FFF2B0"/>
    </linearGradient>
  </defs>

  <!-- Outer ring -->
  <circle cx="16" cy="16" r="14.5" fill="#000000" stroke="url(#gold)" stroke-width="3"/>

  <!-- Cross (simplified, sized for legibility at 32x32) -->
  <path fill="url(#gold)" d="
    M16 7
    C17.2 7 18 7.8 18 9
    L18 12.2
    L21 12.2
    C22.2 12.2 23 13 23 14.2
    C23 15.4 22.2 16.2 21 16.2
    L18 16.2
    L18 23
    C18 24.2 17.2 25 16 25
    C14.8 25 14 24.2 14 23
    L14 16.2
    L11 16.2
    C9.8 16.2 9 15.4 9 14.2
    C9 13 9.8 12.2 11 12.2
    L14 12.2
    L14 9
    C14 7.8 14.8 7 16 7
    Z
  "/>

  <!-- Small inner glow dot -->
  <circle cx="16" cy="16" r="1.2" fill="#FFF2B0" opacity="0.9"/>
</svg>
